<svg width="25" height="25" viewBox="0 0 25 25" fill="none" xmlns="http://www.w3.org/2000/svg">
<g id="arrow-down">
<g id="vuesax/bold/arrow-down">
<g id="arrow-down_2">
<path id="Vector" d="M12.8499 2.06055C7.32985 2.06055 2.84985 6.54055 2.84985 12.0605C2.84985 17.5805 7.32985 22.0605 12.8499 22.0605C18.3699 22.0605 22.8499 17.5805 22.8499 12.0605C22.8499 6.54055 18.3699 2.06055 12.8499 2.06055ZM16.3799 13.0905L13.3799 16.0905C13.2299 16.2405 13.0399 16.3105 12.8499 16.3105C12.6599 16.3105 12.4699 16.2405 12.3199 16.0905L9.31985 13.0905C9.02985 12.8005 9.02985 12.3205 9.31985 12.0305C9.60985 11.7405 10.0899 11.7405 10.3799 12.0305L12.0999 13.7505V8.56055C12.0999 8.15055 12.4399 7.81055 12.8499 7.81055C13.2599 7.81055 13.5999 8.15055 13.5999 8.56055V13.7505L15.3199 12.0305C15.6099 11.7405 16.0899 11.7405 16.3799 12.0305C16.6699 12.3205 16.6699 12.8005 16.3799 13.0905Z" fill="white"/>
</g>
</g>
</g>
</svg>
