<svg width="18" height="18" viewBox="0 0 18 18" fill="none" xmlns="http://www.w3.org/2000/svg">
<path d="M17.6843 6.825C17.5374 6.385 17.1662 6.06938 16.7162 6.00063L12.1481 5.31625L10.0918 0.95125C9.88743 0.51875 9.4693 0.25 8.99993 0.25C8.53055 0.25 8.11243 0.51875 7.90805 0.95125L5.8818 5.30063L1.28368 6.00063C0.833678 6.06938 0.463053 6.385 0.315553 6.825C0.164928 7.27688 0.276178 7.76688 0.606178 8.10375L3.9318 11.5075L3.14618 16.305C3.06805 16.7844 3.2618 17.2538 3.65305 17.5294C4.0293 17.7963 4.51305 17.8225 4.91555 17.6006L8.97118 15.3356L13.0843 17.6006C13.4881 17.8225 13.9706 17.795 14.3468 17.5294C14.7381 17.2538 14.9324 16.7844 14.8537 16.305L14.0668 11.5013L17.3937 8.10375C17.7237 7.76688 17.8349 7.27688 17.6843 6.825Z" fill="#2C3BBE"/>
</svg>
