<svg width="24" height="24" viewBox="0 0 24 24" fill="none" xmlns="http://www.w3.org/2000/svg">
<g clip-path="url(#clip0_297_3020)">
<path d="M20.9915 20.7136H3.0991C2.67759 20.7136 2.26676 20.581 1.92482 20.3345C1.58288 20.088 1.32718 19.7402 1.19393 19.3403C1.06067 18.9404 1.05664 18.5087 1.18238 18.1064C1.30813 17.7041 1.55729 17.3515 1.89456 17.0987L2.79665 16.4221C3.13615 16.1684 3.36392 15.7928 3.43201 15.3745L4.56382 8.50392C4.84015 6.71741 5.74665 5.08876 7.11939 3.9125C8.49212 2.73625 10.2405 2.09005 12.0482 2.09076C13.856 2.09147 15.6038 2.73906 16.9756 3.9164C18.3474 5.09374 19.2526 6.72311 19.5275 8.50984L20.6586 15.3745C20.7267 15.7928 20.9544 16.1684 21.2939 16.4221L22.1963 17.0987C22.5336 17.3515 22.7828 17.7041 22.9086 18.1065C23.0343 18.5089 23.0303 18.9406 22.897 19.3406C22.7637 19.7405 22.5079 20.0883 22.1658 20.3348C21.8238 20.5812 21.4129 20.7138 20.9913 20.7136H20.9915ZM12.0461 3.1866C10.4975 3.17909 8.99799 3.72991 7.82248 4.73812C6.64696 5.74634 5.87415 7.14441 5.64567 8.67612L4.51304 15.5525C4.39941 16.2496 4.01976 16.8754 3.45403 17.2982L2.55166 17.975C2.39832 18.09 2.28505 18.2502 2.22789 18.4331C2.17072 18.616 2.17257 18.8123 2.23317 18.9941C2.29376 19.1759 2.41004 19.334 2.56551 19.446C2.72097 19.558 2.90776 19.6183 3.09938 19.6182H20.9918C21.1833 19.6182 21.37 19.558 21.5255 19.4459C21.6809 19.3339 21.7971 19.1759 21.8577 18.9941C21.9183 18.8124 21.9202 18.6162 21.863 18.4334C21.8059 18.2505 21.6927 18.0903 21.5395 17.9753L20.6368 17.2982C20.0711 16.8754 19.6914 16.2496 19.5778 15.5525L18.4457 8.68198C18.2183 7.14943 17.4461 5.75019 16.2707 4.74084C15.0953 3.73149 13.5954 3.17968 12.0461 3.1866Z" fill="white"/>
<path d="M13.6885 3.38377C13.5433 3.38377 13.404 3.32606 13.3012 3.22334C13.1985 3.12063 13.1408 2.98131 13.1408 2.83605V2.09115C13.1408 1.80062 13.0254 1.52199 12.82 1.31656C12.6145 1.11112 12.3359 0.995708 12.0454 0.995708C11.7548 0.995708 11.4762 1.11112 11.2708 1.31656C11.0653 1.52199 10.9499 1.80062 10.9499 2.09115V2.83605C10.9499 2.98131 10.8922 3.12063 10.7895 3.22334C10.6868 3.32606 10.5475 3.38377 10.4022 3.38377C10.2569 3.38377 10.1176 3.32606 10.0149 3.22334C9.9122 3.12063 9.85449 2.98131 9.85449 2.83605V2.09115C9.85449 1.51009 10.0853 0.952832 10.4962 0.541962C10.9071 0.131093 11.4643 -0.0997314 12.0454 -0.0997314C12.6264 -0.0997314 13.1837 0.131093 13.5946 0.541962C14.0054 0.952832 14.2363 1.51009 14.2363 2.09115V2.83605C14.2363 2.98131 14.1786 3.12063 14.0758 3.22334C13.9731 3.32606 13.8338 3.38377 13.6885 3.38377Z" fill="white"/>
<path d="M12.0453 23.9999C11.0288 23.9988 10.0543 23.5945 9.33551 22.8757C8.61674 22.1569 8.21243 21.1824 8.2113 20.1659C8.2113 20.0206 8.26901 19.8813 8.37173 19.7786C8.47444 19.6759 8.61376 19.6182 8.75902 19.6182C8.90429 19.6182 9.0436 19.6759 9.14632 19.7786C9.24904 19.8813 9.30674 20.0206 9.30674 20.1659C9.30674 20.8922 9.59527 21.5888 10.1089 22.1024C10.6224 22.6159 11.319 22.9045 12.0453 22.9045C12.7717 22.9045 13.4682 22.6159 13.9818 22.1024C14.4954 21.5888 14.7839 20.8922 14.7839 20.1659C14.7839 20.0206 14.8416 19.8813 14.9444 19.7786C15.0471 19.6759 15.1864 19.6182 15.3317 19.6182C15.4769 19.6182 15.6162 19.6759 15.7189 19.7786C15.8217 19.8813 15.8794 20.0206 15.8794 20.1659C15.8782 21.1824 15.4739 22.1569 14.7552 22.8757C14.0364 23.5945 13.0618 23.9988 12.0453 23.9999Z" fill="white"/>
</g>
<defs>
<clipPath id="clip0_297_3020">
<rect width="24" height="24" fill="white"/>
</clipPath>
</defs>
</svg>
