<svg width="22" height="22" viewBox="0 0 22 22" fill="none" xmlns="http://www.w3.org/2000/svg">
<path fill-rule="evenodd" clip-rule="evenodd" d="M8.39997 3.2001C5.52809 3.2001 3.19998 5.52822 3.19998 8.4001C3.19998 11.272 5.52809 13.6001 8.39997 13.6001C11.2718 13.6001 13.6 11.272 13.6 8.4001C13.6 5.52822 11.2718 3.2001 8.39997 3.2001ZM0.599991 8.4001C0.599991 4.09228 4.09216 0.600098 8.39997 0.600098C12.7078 0.600098 16.1999 4.09228 16.1999 8.4001C16.1999 10.0847 15.6659 11.6445 14.7579 12.9196L21.0192 19.1809C21.5268 19.6885 21.5268 20.5117 21.0192 21.0193C20.5115 21.527 19.6884 21.527 19.1807 21.0193L12.9194 14.7581C11.6444 15.6661 10.0845 16.2001 8.39997 16.2001C4.09216 16.2001 0.599991 12.7079 0.599991 8.4001Z" fill="#425486"/>
</svg>
