<svg width="24" height="24" viewBox="0 0 24 24" fill="none" xmlns="http://www.w3.org/2000/svg">
<g clip-path="url(#clip0_297_3216)">
<path d="M19.4081 7.01578L15.4458 6.44001L13.6738 2.84962C12.9896 1.46315 11.0105 1.46264 10.3261 2.84957L8.55404 6.44001L4.59174 7.01578C3.06174 7.23806 2.44979 9.12005 3.55726 10.1997L6.42442 12.9945L5.74759 16.9407C5.48621 18.4644 7.08681 19.6281 8.45598 18.9085L11.9999 17.0452L15.5439 18.9085C16.9147 19.629 18.5131 18.461 18.2522 16.9407L17.5754 12.9945L20.4426 10.1997C21.5496 9.12042 20.9387 7.2382 19.4081 7.01578Z" fill="white"/>
<path d="M6.31559 2.21018L5.35882 0.89337C5.09909 0.535995 4.59879 0.45673 4.24142 0.716464C3.88399 0.976151 3.80478 1.47645 4.06446 1.83387L5.02123 3.15068C5.28111 3.50825 5.78145 3.58723 6.13864 3.32759C6.49606 3.06795 6.57528 2.5676 6.31559 2.21018Z" fill="white"/>
<path d="M3.14047 14.0113C3.00392 13.5911 2.55271 13.361 2.13242 13.4977L0.552969 14.0109C0.132781 14.1474 -0.0971408 14.5987 0.0393593 15.019C0.176141 15.4399 0.628297 15.6689 1.04741 15.5326L2.62691 15.0193C3.0471 14.8829 3.27702 14.4315 3.14047 14.0113Z" fill="white"/>
<path d="M19.7588 0.716477C19.4014 0.456743 18.9011 0.535962 18.6414 0.893384L17.6846 2.2102C17.4249 2.56762 17.5041 3.06796 17.8616 3.3276C18.2191 3.58738 18.7193 3.50798 18.979 3.1507L19.9357 1.83388C20.1955 1.47646 20.1162 0.976165 19.7588 0.716477Z" fill="white"/>
<path d="M23.447 14.0108L21.8675 13.4976C21.4473 13.3608 20.996 13.591 20.8594 14.0112C20.7229 14.4314 20.9528 14.8827 21.3731 15.0193L22.9526 15.5325C23.3719 15.6689 23.8239 15.4396 23.9606 15.0189C24.0971 14.5987 23.8672 14.1474 23.447 14.0108Z" fill="white"/>
<path d="M11.9999 20.2126C11.5581 20.2126 11.2 20.5708 11.2 21.0126V22.6363C11.2 23.0781 11.5581 23.4362 11.9999 23.4362C12.4417 23.4362 12.7999 23.0781 12.7999 22.6363V21.0126C12.7999 20.5708 12.4418 20.2126 11.9999 20.2126Z" fill="white"/>
</g>
<defs>
<clipPath id="clip0_297_3216">
<rect width="24" height="24" fill="white"/>
</clipPath>
</defs>
</svg>
