<svg width="10" height="8" viewBox="0 0 10 8" fill="none" xmlns="http://www.w3.org/2000/svg">
<path fill-rule="evenodd" clip-rule="evenodd" d="M8 0C7.66863 0 7.4 0.223858 7.4 0.5V1H6.8C6.46863 1 6.2 1.22386 6.2 1.5C6.2 1.77614 6.46863 2 6.8 2H7.4V2.5C7.4 2.77614 7.66863 3 8 3C8.33137 3 8.6 2.77614 8.6 2.5V2H9.2C9.53137 2 9.8 1.77614 9.8 1.5C9.8 1.22386 9.53137 1 9.2 1H8.6V0.5C8.6 0.223858 8.33137 0 8 0ZM8 5C7.66863 5 7.4 5.22386 7.4 5.5V6H6.8C6.46863 6 6.2 6.22386 6.2 6.5C6.2 6.77614 6.46863 7 6.8 7H7.4V7.5C7.4 7.77614 7.66863 8 8 8C8.33137 8 8.6 7.77614 8.6 7.5V7H9.2C9.53137 7 9.8 6.77614 9.8 6.5C9.8 6.22386 9.53137 6 9.2 6H8.6V5.5C8.6 5.22386 8.33137 5 8 5Z" fill="#16BB55"/>
<path fill-rule="evenodd" clip-rule="evenodd" d="M3.80003 0C3.52779 0 3.28967 0.152741 3.22001 0.372054L2.51248 2.59947L0.5002 3.56691C0.314466 3.6562 0.200034 3.82131 0.200034 4C0.200034 4.17869 0.314466 4.3438 0.5002 4.43309L2.51248 5.40054L3.22001 7.62795C3.28967 7.84726 3.52779 8 3.80003 8C4.07227 8 4.31039 7.84726 4.38006 7.62795L5.08759 5.40053L7.09984 4.43309C7.28557 4.3438 7.4 4.17869 7.4 4C7.4 3.82131 7.28557 3.6562 7.09984 3.56691L5.08759 2.59947L4.38006 0.372054C4.31039 0.152741 4.07227 0 3.80003 0Z" fill="#16BB55"/>
</svg>
