<svg width="20" height="21" viewBox="0 0 20 21" fill="none" xmlns="http://www.w3.org/2000/svg">
<path d="M13 6.5C13 8.15685 11.6568 9.5 9.99998 9.5C8.34313 9.5 6.99998 8.15685 6.99998 6.5C6.99998 4.84315 8.34313 3.5 9.99998 3.5C11.6568 3.5 13 4.84315 13 6.5Z" fill="#868686"/>
<path d="M18 8.5C18 9.60457 17.1046 10.5 16 10.5C14.8954 10.5 14 9.60457 14 8.5C14 7.39543 14.8954 6.5 16 6.5C17.1046 6.5 18 7.39543 18 8.5Z" fill="#868686"/>
<path d="M14 15.5C14 13.2909 12.2091 11.5 9.99998 11.5C7.79085 11.5 5.99998 13.2909 5.99998 15.5V18.5H14V15.5Z" fill="#868686"/>
<path d="M5.99998 8.5C5.99998 9.60457 5.10455 10.5 3.99998 10.5C2.89542 10.5 1.99998 9.60457 1.99998 8.5C1.99998 7.39543 2.89542 6.5 3.99998 6.5C5.10455 6.5 5.99998 7.39543 5.99998 8.5Z" fill="#868686"/>
<path d="M16 18.5V15.5C16 14.4459 15.7281 13.4552 15.2507 12.5943C15.4902 12.5327 15.7413 12.5 16 12.5C17.6568 12.5 19 13.8431 19 15.5V18.5H16Z" fill="#868686"/>
<path d="M4.74925 12.5943C4.27183 13.4552 3.99998 14.4459 3.99998 15.5V18.5H0.999985V15.5C0.999985 13.8431 2.34313 12.5 3.99998 12.5C4.25869 12.5 4.50975 12.5327 4.74925 12.5943Z" fill="#868686"/>
</svg>
